<?xml version="1.0" encoding="UTF-8" standalone="no"?>
<!-- Created with Inkscape (http://www.inkscape.org/) -->

<svg
   width="240"
   height="3360"
   viewBox="0 0 63.4992 888.9888"
   version="1.1"
   id="svg8"
   inkscape:version="1.4 (86a8ad7, 2024-10-11)"
   sodipodi:docname="sprites.svg"
   xml:space="preserve"
   xmlns:inkscape="http://www.inkscape.org/namespaces/inkscape"
   xmlns:sodipodi="http://sodipodi.sourceforge.net/DTD/sodipodi-0.dtd"
   xmlns="http://www.w3.org/2000/svg"
   xmlns:svg="http://www.w3.org/2000/svg"
   xmlns:rdf="http://www.w3.org/1999/02/22-rdf-syntax-ns#"
   xmlns:cc="http://creativecommons.org/ns#"
   xmlns:dc="http://purl.org/dc/elements/1.1/"><defs
     id="defs2" /><sodipodi:namedview
     id="base"
     pagecolor="#ffffff"
     bordercolor="#666666"
     borderopacity="1.0"
     inkscape:pageopacity="0.0"
     inkscape:pageshadow="2"
     inkscape:zoom="2.2820101"
     inkscape:cx="147.01951"
     inkscape:cy="2436.2294"
     inkscape:document-units="px"
     inkscape:current-layer="turn-left"
     showgrid="true"
     units="px"
     inkscape:window-width="2560"
     inkscape:window-height="1369"
     inkscape:window-x="-8"
     inkscape:window-y="-8"
     inkscape:window-maximized="1"
     inkscape:snap-grids="true"
     inkscape:object-paths="true"
     inkscape:showpageshadow="0"
     inkscape:pagecheckerboard="1"
     inkscape:deskcolor="#d1d1d1"><inkscape:grid
       type="xygrid"
       id="grid10"
       originx="0"
       originy="0"
       spacingy="1.05832"
       spacingx="1.05832"
       units="px"
       empspacing="6" /></sodipodi:namedview><metadata
     id="metadata5"><rdf:RDF><cc:Work
         rdf:about=""><dc:format>image/svg+xml</dc:format><dc:type
           rdf:resource="http://purl.org/dc/dcmitype/StillImage" /></cc:Work></rdf:RDF></metadata><g
     inkscape:label="Turn left"
     inkscape:groupmode="layer"
     id="turn-left"
     transform="translate(0,-233.50012)"><circle
       id="path6"
       style="fill:#000000;stroke:none;stroke-width:0.26458"
       cx="38.099525"
       cy="262.07477"
       r="0" /><circle
       id="path8"
       style="fill:#000000;stroke:none;stroke-width:0.26458"
       cx="48.682724"
       cy="249.37492"
       r="0" /><path
       id="rect5"
       style="fill:#000000;stroke:#000000;stroke-width:0"
       d="m 19.049762,239.85004 v 6.34992 h 9.52488 6.34992 v 50.79936 h -6.34992 v -44.44944 h -9.52488 v 6.34992 L 8.4665615,249.37492 Z" /><rect
       style="fill:#000000;stroke:#000000;stroke-width:0"
       id="rect10"
       width="2.4063412e-13"
       height="1.05832"
       x="-16.933121"
       y="250.43324" /><g
       inkscape:label="Capa 1"
       id="layer1"
       transform="translate(1.2277229e-6,63.499204)"><circle
         id="path6-2"
         style="fill:#000000;stroke:none;stroke-width:0.26458"
         cx="38.099525"
         cy="262.07477"
         r="0" /><circle
         id="path8-4"
         style="fill:#000000;stroke:none;stroke-width:0.26458"
         cx="48.682724"
         cy="249.37492"
         r="0" /><path
         id="rect5-5"
         style="fill:#000000;stroke:#000000;stroke-width:0"
         d="m 44.44944,239.85004 v 6.34992 h -9.52488 -6.34992 v 50.79936 h 6.34992 v -44.44944 h 9.52488 v 6.34992 l 10.5832,-9.52488 z" /><rect
         style="fill:#000000;stroke:#000000;stroke-width:0"
         id="rect10-5"
         width="2.4063412e-13"
         height="1.05832"
         x="-16.933121"
         y="250.43324" /></g><g
       inkscape:label="Capa 1"
       id="layer1-2"
       transform="translate(3.6413551e-7,126.9984)"><circle
         id="path6-7"
         style="fill:#000000;stroke:none;stroke-width:0.26458"
         cx="38.099525"
         cy="262.07477"
         r="0" /><circle
         id="path8-6"
         style="fill:#000000;stroke:none;stroke-width:0.26458"
         cx="48.682724"
         cy="249.37492"
         r="0" /><path
         id="rect5-1"
         style="fill:#000000;stroke:#000000;stroke-width:0"
         d="m 34.924561,246.19996 v 2.11664 4.23328 7.40824 37.0412 h -6.34992 v -42.3328 l -11.64152,11.64152 5.2916,5.2916 H 6.3499212 v -15.8748 l 6.3499198,6.34992 15.8748,-15.8748 z" /><rect
         style="fill:#000000;stroke:#000000;stroke-width:0"
         id="rect10-4"
         width="2.4063412e-13"
         height="1.05832"
         x="-16.933121"
         y="250.43324" /></g><g
       inkscape:label="Capa 1"
       id="layer1-6"
       transform="translate(-3.8146975e-6,190.4976)"><circle
         id="path6-8"
         style="fill:#000000;stroke:none;stroke-width:0.26458"
         cx="38.099525"
         cy="262.07477"
         r="0" /><circle
         id="path8-5"
         style="fill:#000000;stroke:none;stroke-width:0.26458"
         cx="48.682724"
         cy="249.37492"
         r="0" /><path
         id="rect5-7"
         style="fill:#000000;stroke:#000000;stroke-width:0"
         d="m 28.57464,246.19996 v 2.11664 4.23328 7.40824 37.0412 h 6.34992 v -42.3328 l 11.64152,11.64152 -5.2916,5.2916 h 15.8748 v -15.8748 l -6.34992,6.34992 -15.8748,-15.8748 z" /><rect
         style="fill:#000000;stroke:#000000;stroke-width:0"
         id="rect10-6"
         width="2.4063412e-13"
         height="1.05832"
         x="-16.933121"
         y="250.43324" /></g><g
       inkscape:label="Capa 1"
       id="layer1-9"
       transform="translate(5.0055195e-7,253.99681)"><circle
         id="path6-5"
         style="fill:#000000;stroke:none;stroke-width:0.26458"
         cx="38.099525"
         cy="262.07477"
         r="0" /><circle
         id="path8-43"
         style="fill:#000000;stroke:none;stroke-width:0.26458"
         cx="48.682724"
         cy="249.37492"
         r="0" /><path
         id="rect5-12"
         style="fill:#000000;stroke:#000000;stroke-width:0"
         d="m 22.224721,246.19996 -5.2916,5.2916 11.64152,11.64152 6.34992,6.34992 v 2.11664 25.39968 h -6.34992 v -25.39968 l -15.8748,-15.8748 -6.3499198,6.34992 v -15.8748 z" /><rect
         style="fill:#000000;stroke:#000000;stroke-width:0"
         id="rect10-3"
         width="2.4063412e-13"
         height="1.05832"
         x="-16.933121"
         y="250.43324" /></g><g
       inkscape:label="Capa 1"
       id="layer1-8"
       transform="translate(1.5005481e-6,317.49601)"><circle
         id="path6-74"
         style="fill:#000000;stroke:none;stroke-width:0.26458"
         cx="38.099525"
         cy="262.07477"
         r="0" /><circle
         id="path8-2"
         style="fill:#000000;stroke:none;stroke-width:0.26458"
         cx="48.682724"
         cy="249.37492"
         r="0" /><path
         id="rect5-77"
         style="fill:#000000;stroke:#000000;stroke-width:0"
         d="m 41.27448,246.19996 5.2916,5.2916 -11.64152,11.64152 -6.34992,6.34992 v 2.11664 25.39968 h 6.34992 v -25.39968 l 15.8748,-15.8748 6.34992,6.34992 v -15.8748 z" /><rect
         style="fill:#000000;stroke:#000000;stroke-width:0"
         id="rect10-9"
         width="2.4063412e-13"
         height="1.05832"
         x="-16.933121"
         y="250.43324" /></g><g
       inkscape:label="Capa 1"
       id="layer1-5"
       transform="translate(1.5005481e-6,380.99522)"><path
         id="path5"
         style="fill:#000000;stroke:#000000;stroke-width:0"
         d="m 31.7496,233.50012 -9.52488,9.52488 h 6.34992 v 53.97432 h 6.34992 V 243.025 h 6.34992 z" /><circle
         id="path6-0"
         style="fill:#000000;stroke:none;stroke-width:0.26458"
         cx="38.099525"
         cy="262.07477"
         r="0" /><circle
         id="path8-28"
         style="fill:#000000;stroke:none;stroke-width:0.26458"
         cx="48.682724"
         cy="249.37492"
         r="0" /></g><g
       inkscape:label="Capa 1"
       id="layer1-65"
       transform="translate(1.3641374e-6,444.49442)"><path
         id="rect2"
         style="fill:#000000;stroke:#000000;stroke-width:0"
         d="m 47.6244,255.72484 -9.52488,9.52488 h 6.34992 a 12.699841,12.699841 0 0 1 -12.69984,12.69984 3.1749601,3.1749601 0 0 0 -3.17496,3.17496 v 15.8748 h 6.34992 v -12.99646 a 19.049761,19.049761 0 0 0 15.8748,-18.75314 h 6.34992 z" /><path
         id="path9"
         style="fill:#000000;stroke:#000000;stroke-width:0"
         d="M 31.7496,246.19996 A 19.049761,19.049761 0 0 0 12.69984,265.24972 19.049761,19.049761 0 0 0 26.458,283.5445 v -6.80312 a 12.699841,12.699841 0 0 1 -7.40824,-11.49166 12.699841,12.699841 0 0 1 12.69984,-12.69984 12.699841,12.699841 0 0 1 9.915032,4.90145 l 4.49941,-4.49941 A 19.049761,19.049761 0 0 0 31.7496,246.19996 Z" /><circle
         id="path6-09"
         style="fill:#000000;stroke:none;stroke-width:0.26458"
         cx="38.099525"
         cy="262.07477"
         r="0" /><circle
         id="path8-0"
         style="fill:#000000;stroke:none;stroke-width:0.26458"
         cx="48.682724"
         cy="249.37492"
         r="0" /></g><g
       inkscape:label="Capa 1"
       id="layer1-93"
       transform="translate(1.3641374e-6,507.99362)"><path
         id="path5-4"
         style="fill:#000000;stroke:#000000;stroke-width:0"
         d="m 31.7496,233.50012 -9.52488,9.52488 h 6.34992 v 6.34992 a 3.1749592,3.1749697 0 0 0 3.17496,3.17496 12.699841,12.699841 0 0 1 12.69984,12.69984 A 12.699841,12.699841 0 0 1 31.7496,277.94956 12.699841,12.699841 0 0 1 19.04976,265.24972 12.699841,12.699841 0 0 1 26.458,253.75806 v -6.80312 A 19.049761,19.049761 0 0 0 12.69984,265.24972 19.049761,19.049761 0 0 0 31.7496,284.29948 19.049761,19.049761 0 0 0 50.79936,265.24972 19.049761,19.049761 0 0 0 34.92456,246.49451 V 243.025 h 6.34992 z" /><circle
         id="path6-4"
         style="fill:#000000;stroke:none;stroke-width:0.26458"
         cx="38.099525"
         cy="262.07477"
         r="0" /><circle
         id="path8-60"
         style="fill:#000000;stroke:none;stroke-width:0.26458"
         cx="48.682724"
         cy="249.37492"
         r="0" /></g><g
       inkscape:label="Capa 1"
       id="layer1-96"
       transform="translate(2.0461984e-6,571.49282)"><path
         id="path1"
         style="fill:#000000;stroke:#000000;stroke-width:0"
         d="m 31.7496,246.19996 a 19.049763,19.049763 0 0 0 -19.04976,19.04976 v 6.34992 H 6.34992 l 9.52488,9.52488 9.52488,-9.52488 h -6.34992 v -6.34992 a 12.699841,12.699841 0 0 1 12.69984,-12.69984 12.699841,12.699841 0 0 1 12.69984,12.69984 v 31.7496 h 6.34992 v -31.7496 A 19.049763,19.049763 0 0 0 31.7496,246.19996 Z" /><circle
         id="path6-3"
         style="fill:#000000;stroke:none;stroke-width:0.26458"
         cx="38.099525"
         cy="262.07477"
         r="0" /><circle
         id="path8-7"
         style="fill:#000000;stroke:none;stroke-width:0.26458"
         cx="48.682724"
         cy="249.37492"
         r="0" /></g><g
       inkscape:label="Capa 1"
       id="layer1-0"
       transform="translate(4.6213848e-8,761.99043)"><path
         id="path5-1"
         style="fill:#000000;stroke:#000000;stroke-width:0"
         d="m 15.8748,233.50012 9.52488,9.52488 h -6.34992 v 53.97432 H 12.69984 V 243.025 H 6.34992 Z" /><path
         id="path5-0"
         style="fill:#000000;stroke:#000000;stroke-width:0"
         d="m 47.624402,233.50012 9.52488,9.52488 h -6.34992 v 6.34992 h -6.34992 V 243.025 h -6.34992 z m 3.17496,19.04976 v 6.34992 h -6.34992 v -6.34992 z m 0,9.52488 v 6.34992 h -6.34992 v -6.34992 z m 0,9.52488 v 6.34992 h -6.34992 v -6.34992 z m 0,9.52488 v 6.34992 h -6.34992 v -6.34992 z m 0,9.52488 v 6.34992 h -6.34992 v -6.34992 z" /><circle
         id="path6-6"
         style="fill:#000000;stroke:none;stroke-width:0.26458"
         cx="38.099525"
         cy="262.07477"
         r="0" /><circle
         id="path8-57"
         style="fill:#000000;stroke:none;stroke-width:0.26458"
         cx="48.682724"
         cy="249.37492"
         r="0" /></g><g
       inkscape:label="Capa 1"
       id="layer1-01"
       transform="translate(4.6213848e-8,825.48964)"><path
         id="path5-46"
         style="fill:#000000;stroke:#000000;stroke-width:0"
         d="m 47.624402,233.50012 -9.52488,9.52488 h 6.34992 v 53.97432 h 6.34992 V 243.025 h 6.34992 z" /><path
         id="path5-0-0"
         style="fill:#000000;stroke:#000000;stroke-width:0"
         d="M 15.8748,233.50012 6.34992,243.025 h 6.34992 v 6.34992 h 6.34992 V 243.025 h 6.34992 z m -3.17496,19.04976 v 6.34992 h 6.34992 v -6.34992 z m 0,9.52488 v 6.34992 h 6.34992 v -6.34992 z m 0,9.52488 v 6.34992 h 6.34992 v -6.34992 z m 0,9.52488 v 6.34992 h 6.34992 v -6.34992 z m 0,9.52488 v 6.34992 h 6.34992 v -6.34992 z" /><circle
         id="path6-71"
         style="fill:#000000;stroke:none;stroke-width:0.26458"
         cx="38.099525"
         cy="262.07477"
         r="0" /><circle
         id="path8-77"
         style="fill:#000000;stroke:none;stroke-width:0.26458"
         cx="48.682724"
         cy="249.37492"
         r="0" /></g><g
       inkscape:label="Capa 1"
       id="layer1-24"
       transform="translate(0,698.49123)"><circle
         id="path6-55"
         style="fill:#000000;stroke:none;stroke-width:0.26458"
         cx="38.099525"
         cy="262.07477"
         r="0" /><circle
         id="path8-1"
         style="fill:#000000;stroke:none;stroke-width:0.26458"
         cx="48.682724"
         cy="249.37492"
         r="0" /><path
         id="rect4-7"
         style="fill:#000000;stroke:#000000;stroke-width:0"
         d="m 0,233.50012 v 3.17496 38.09952 3.17496 19.04976 h 6.34992 v -16.40396 h 53.97432 3.17496 v -41.27448 -3.17496 H 6.34992 v -2.6458 z m 6.34992,5.82076 h 6.34992 9.52488 9.52488 9.52488 9.52488 9.52488 v 9.52488 9.52488 9.52488 9.52488 H 50.79936 41.27448 31.7496 22.22472 12.69984 6.34992 v -2.6458 z" /></g><g
       inkscape:label="Capa 1"
       id="layer1-61"
       transform="translate(1.8206776e-8,634.99203)"><circle
         id="path6-42"
         style="fill:#000000;stroke:none;stroke-width:0.26458"
         cx="38.099525"
         cy="262.07477"
         r="0" /><circle
         id="path8-3"
         style="fill:#000000;stroke:none;stroke-width:0.26458"
         cx="48.682724"
         cy="249.37492"
         r="0" /><path
         id="rect4"
         style="fill:#000000;stroke:#000000;stroke-width:0"
         d="m 1.3641355e-7,235.61676 v 3.17496 38.09952 3.17496 16.93312 H 6.3499201 V 280.0662 H 60.32424 63.4992 v -41.27448 -3.17496 z M 12.69984,238.79172 h 9.52488 v 9.52488 h 9.52488 v -9.52488 h 9.52488 v 9.52488 h 9.52488 v -9.52488 h 9.52488 v 9.52488 h -9.52488 v 9.52488 h 9.52488 v 9.52488 h -9.52488 v 9.52488 h -9.52488 v -9.52488 H 31.7496 v 9.52488 h -9.52488 v -9.52488 h -9.52488 v 9.52488 H 3.1749601 v -9.52488 H 12.69984 v -9.52488 H 3.1749601 V 248.3166 H 12.69984 Z m 0,9.52488 v 9.52488 h 9.52488 v -9.52488 z m 9.52488,9.52488 v 9.52488 h 9.52488 v -9.52488 z m 9.52488,0 h 9.52488 V 248.3166 H 31.7496 Z m 9.52488,0 v 9.52488 h 9.52488 v -9.52488 z" /></g></g></svg>
