<svg xmlns="http://www.w3.org/2000/svg" xmlns:xlink="http://www.w3.org/1999/xlink" version="1.1" id="Capa_1" x="0px" y="0px" viewBox="0 0 205.709 205.709" style="fill: #c00;" xml:space="preserve">
<g style="fill: #c00;">
	<g style="fill: #c00;">
		<path style="fill: #c00;" d="M57.233,119.476c0.004-1.045-0.852-1.9-1.904-1.9H25.786c-1.045,0-1.89,0.855-1.897,1.9    c0.004,1.052,0.852,1.908,1.897,1.908h29.543C56.381,121.384,57.237,120.529,57.233,119.476z"></path>
		<path style="fill: #c00;" d="M139.046,89.99l20.893-20.89c0.361-0.369,0.565-0.852,0.565-1.364    c-0.011-0.497-0.204-0.966-0.555-1.313c-0.372-0.369-0.841-0.565-1.349-0.565c-0.508,0-0.977,0.193-1.324,0.548L136.361,87.32    c-0.365,0.365-0.558,0.83-0.558,1.324c0,0.512,0.2,0.991,0.565,1.356C137.07,90.685,138.337,90.706,139.046,89.99z"></path>
		<path style="fill: #c00;" d="M140.012,150.995c-0.369-0.369-0.841-0.562-1.349-0.562c-0.505,0-0.97,0.197-1.328,0.551    c-0.372,0.372-0.562,0.845-0.573,1.349c0.007,0.512,0.2,0.981,0.562,1.356l20.883,20.872c0.963,0.973,1.714,0.984,2.695,0    c0.741-0.748,0.759-1.929,0.011-2.666L140.012,150.995z"></path>
		<path style="fill: #c00;" d="M71.82,152.627c-0.512,0-0.984,0.2-1.342,0.551l-20.893,20.9c-0.752,0.748-0.752,1.94-0.004,2.688    c0.888,0.895,1.8,0.905,2.677,0.011l20.908-20.9c0.748-0.748,0.744-1.95-0.007-2.72C72.815,152.828,72.332,152.627,71.82,152.627z    "></path>
		<path style="fill: #c00;" d="M102.853,36.225c-46.725,0-84.74,38.015-84.744,84.744c0.004,46.722,38.018,84.74,84.751,84.74    c46.722,0,84.74-38.018,84.74-84.74C187.6,74.24,149.582,36.225,102.853,36.225z M102.856,200.67    c-43.955,0-79.705-35.763-79.705-79.701c0-22.701,9.584-43.157,24.862-57.687c-0.075,0.565,0.075,1.152,0.508,1.589l20.893,20.883    c0.73,0.723,1.968,0.712,2.713-0.014c0.336-0.333,0.526-0.805,0.526-1.313c0-0.512-0.19-0.984-0.54-1.335L51.203,62.175    c-0.365-0.354-0.837-0.555-1.349-0.555c-0.007-0.004-0.014,0.004-0.029,0.004c14.108-12.619,32.657-20.36,53.028-20.367    c43.129,0.004,78.284,34.461,79.579,77.275c-0.34-0.54-0.83-0.966-1.521-0.973l-29.554,0.011c-1.041,0-1.886,0.845-1.886,1.9    c0,1.052,0.845,1.908,1.886,1.908h29.554c0.769,0,1.299-0.523,1.603-1.17c0.007,0.254,0.043,0.501,0.043,0.759    C182.557,164.917,146.801,200.67,102.856,200.67z"></path>
		<path style="fill: #c00;" d="M103.98,58.772c0,0-0.011,0-0.018,0c-1.031,0.014-1.879,0.798-1.979,1.814L90.692,173.313    c-0.05,0.562,0.132,1.131,0.519,1.557c0.379,0.422,0.923,0.662,1.492,0.662h25.163c0.58,0,1.127-0.243,1.51-0.676    c0.383-0.433,0.565-1.016,0.49-1.585L105.991,60.551C105.862,59.531,105,58.772,103.98,58.772z M94.929,171.491l9.258-92.524    l11.395,92.524H94.929z"></path>
		<path style="fill: #c00;" d="M98.665,16.273c0-4.721-0.079-8.135-0.297-11.714l0.129-0.043c1.439,3.078,3.328,6.32,5.307,9.484    l9.026,14.412h3.701V0.004h-3.457v11.882c0,4.431,0.089,7.884,0.422,11.674l-0.075,0.043c-1.349-2.91-2.996-5.902-5.111-9.23    L99.213,0h-4.005v28.405h3.454V16.273H98.665z"></path>
	</g>
</g>
</svg>