<svg width="24.1" height="24.1" xmlns="http://www.w3.org/2000/svg">
 <g>
  <title>Layer 1</title>
  <g id="svg_1" fill=" #343434">
   <path transform="rotate(90 12.050000190734863,12.050000190734865) " id="svg_2" fill=" #343434" stroke="white" stroke-width="1" stroke-opacity="0.7" d="m9.1,9.05c6.1,0 11,4.9 11,11l0,3c0,0.6 0.4,1 1,1l2,0c0.6,0 1,-0.4 1,-1l0,-3c0,-8.3 -6.7,-15 -15,-15l-0.6,0c-0.4,0 -0.7,-0.5 -0.4,-0.9l1,-1c0.2,-0.2 0.3,-0.4 0.3,-0.7c0,-0.3 -0.1,-0.5 -0.3,-0.7l-1.4,-1.4c-0.2,-0.2 -0.4,-0.3 -0.7,-0.3c-0.3,0 -0.5,0.1 -0.7,0.3l-6,6c-0.2,0.2 -0.3,0.5 -0.3,0.7c0,0.3 0.1,0.5 0.3,0.7l6,6c0.2,0.2 0.4,0.3 0.7,0.3c0.3,0 0.5,-0.1 0.7,-0.3l1.4,-1.4c0.2,-0.2 0.3,-0.4 0.3,-0.7c0,-0.3 -0.1,-0.5 -0.3,-0.7l-1,-1c-0.3,-0.3 -0.1,-0.9 0.4,-0.9l0.6,0z"/>
  </g>
 </g>
</svg>