
          <svg xmlns="http://www.w3.org/2000/svg" xmlns:cc="http://creativecommons.org/ns#" xmlns:rdf="http://www.w3.org/1999/02/22-rdf-syntax-ns#" version="1.1" width="407.51568603515625" height="85">
            <defs>
              <style type="text/css">svg {
          background-color: #fff; }
        
        .root text,
        .root tspan {
          font: 12px Arial; }
        
        .root path {
          fill-opacity: 0;
          stroke-width: 2px;
          stroke: #000; }
        
        .root circle {
          fill: #6b6659;
          stroke-width: 2px;
          stroke: #000; }
        
        .anchor text, .any-character text {
          fill: #fff; }
        
        .anchor rect, .any-character rect {
          fill: #6b6659; }
        
        .escape text, .charset-escape text, .literal text {
          fill: #000; }
        
        .escape rect, .charset-escape rect {
          fill: #bada55; }
        
        .literal rect {
          fill: #dae9e5; }
        
        .charset .charset-box {
          fill: #cbcbba; }
        
        .subexp .subexp-label tspan,
        .charset .charset-label tspan,
        .match-fragment .repeat-label tspan {
          font-size: 10px; }
        
        .repeat-label {
          cursor: help; }
        
        .subexp .subexp-label tspan,
        .charset .charset-label tspan {
          dominant-baseline: text-after-edge; }
        
        .subexp .subexp-box {
          stroke: #908c83;
          stroke-dasharray: 6,2;
          stroke-width: 2px;
          fill-opacity: 0; }
        
        .quote {
          fill: #908c83; }
        </style>
            </defs>
            <metadata>
              <rdf:rdf>
                <cc:license rdf:about="http://creativecommons.org/licenses/by/3.0/">
                  <cc:permits rdf:resource="http://creativecommons.org/ns#Reproduction"></cc:permits>
                  <cc:permits rdf:resource="http://creativecommons.org/ns#Distribution"></cc:permits>
                  <cc:requires rdf:resource="http://creativecommons.org/ns#Notice"></cc:requires>
                  <cc:requires rdf:resource="http://creativecommons.org/ns#Attribution"></cc:requires>
                  <cc:permits rdf:resource="http://creativecommons.org/ns#DerivativeWorks"></cc:permits>
                </cc:license>
              </rdf:rdf>
            </metadata>
          <desc>Created with Snap</desc><g transform="matrix(1,0,0,1,15,10)" class="root"><g transform="matrix(1,0,0,1,10,0)" class="regexp match"><path d="M71.03125,33H81.0313M141.75005,33H171.75M255.46875,33H290.4688"></path><g transform="matrix(1,0,0,1,0,21)" class="match-fragment"><g class="label anchor"><rect width="71.03125" height="24"></rect><text x="0" y="0" transform="matrix(1,0,0,1,5,17)"><tspan>Start of line</tspan></text></g></g><g transform="matrix(1,0,0,1,81.0313,21)" class="match-fragment literal"><g class="label"><rect width="60.71875" height="24" rx="3" ry="3"></rect><text x="0" y="0" transform="matrix(1,0,0,1,5,17)"><tspan class="quote">“</tspan><tspan>audio__</tspan><tspan class="quote">”</tspan></text></g></g><g transform="matrix(1,0,0,1,151.75,0)" class="match-fragment"><path d="M10,33q-10,0 -10,10v12q0,10 10,10h103.71875q10,0 10,-10v-12q0,-10 -10,-10M123.71875,48l5,-5m-5,5l-5,-5"></path><g transform="matrix(1,0,0,1,10,0)" class="subexp"><rect rx="3" ry="3" class="subexp-box" transform="matrix(1,0,0,1,0,11)" width="103.71875" height="44"></rect><text x="0" y="0" transform="matrix(1,0,0,1,0,11)" class="subexp-label"><tspan>nombre del atributo</tspan></text><g transform="matrix(1,0,0,1,10,21)" class="regexp match match-fragment any-character"><g class="label"><rect width="83.71875" height="24"></rect><text x="0" y="0" transform="matrix(1,0,0,1,5,17)"><tspan>any character</tspan></text></g></g></g></g><g transform="matrix(1,0,0,1,290.4688,21)" class="match-fragment"><g class="label anchor"><rect width="67.046875" height="24"></rect><text x="0" y="0" transform="matrix(1,0,0,1,5,17)"><tspan>End of line</tspan></text></g></g></g><path d="M10,33H0M367.515675,33H377.51568603515625"></path><circle cx="0" cy="33" r="5"></circle><circle cx="377.51568603515625" cy="33" r="5"></circle></g></svg>
        