<?xml version="1.0" encoding="UTF-8" standalone="no"?>
<!-- Created with Inkscape (http://www.inkscape.org/) -->

<svg
   xmlns:dc="http://purl.org/dc/elements/1.1/"
   xmlns:cc="http://creativecommons.org/ns#"
   xmlns:rdf="http://www.w3.org/1999/02/22-rdf-syntax-ns#"
   xmlns:svg="http://www.w3.org/2000/svg"
   xmlns="http://www.w3.org/2000/svg"
   xmlns:sodipodi="http://sodipodi.sourceforge.net/DTD/sodipodi-0.dtd"
   xmlns:inkscape="http://www.inkscape.org/namespaces/inkscape"
   width="251.86375"
   height="133.61899"
   viewBox="0 0 66.63895 35.353358"
   version="1.1"
   id="svg3786"
   inkscape:version="0.92.0 r15299"
   sodipodi:docname="threedControls.svg">
  <g
     inkscape:groupmode="layer"
     id="backgroundLayer"
     inkscape:label="backgroundLayer"
     transform="translate(-1.4344857,-42.797176)">
    <path
       id="background"
       style="display:inline;fill:#ffffff;fill-opacity:0.38823529;stroke:none;stroke-width:0.21022038;stroke-linecap:round;stroke-linejoin:round;stroke-miterlimit:4;stroke-dasharray:none;stroke-dashoffset:0;stroke-opacity:0.3169643;paint-order:stroke fill markers"
       d="M 68.073439,60.500913 A 17.600142,17.600142 0 0 1 50.473297,78.101054 17.600142,17.600142 0 0 1 32.873156,60.500913 17.600142,17.600142 0 0 1 50.473297,42.900772 17.600142,17.600142 0 0 1 68.073439,60.500913 Z M 36.787846,60.473856 A 17.67668,17.67668 0 0 1 19.111168,78.150534 17.67668,17.67668 0 0 1 1.4344857,60.473856 17.67668,17.67668 0 0 1 19.111168,42.797176 17.67668,17.67668 0 0 1 36.787846,60.473856 Z"
       inkscape:connector-curvature="0" />
  </g>
  <g
     inkscape:label="tiltLayer"
     inkscape:groupmode="layer"
     id="tiltLayer"
     transform="translate(-25.756013,-42.663541)"
     style="display:inline">
    <g
       transform="matrix(0.21637195,0,0,0.21660052,28.757264,44.46003)"
       class="tc-view-3d-cm-tilt-inner"
       style="color:#000000;font-style:normal;font-variant:normal;font-weight:normal;font-stretch:normal;font-size:16px;line-height:normal;font-family:Arial, helvetica, sans-serif;font-variant-ligatures:normal;font-variant-caps:normal;font-variant-numeric:normal;text-indent:0px;text-align:start;text-decoration:none;text-decoration-line:none;text-decoration-style:solid;text-decoration-color:#000000;letter-spacing:normal;word-spacing:0px;text-transform:none;writing-mode:lr-tb;direction:ltr;dominant-baseline:auto;baseline-shift:0px;text-anchor:start;white-space:normal;clip-rule:nonzero;display:inline;visibility:visible;opacity:1;isolation:auto;mix-blend-mode:normal;color-interpolation:sRGB;color-interpolation-filters:linearRGB;vector-effect:none;fill:#000000;fill-opacity:1;fill-rule:nonzero;stroke:none;stroke-width:1px;stroke-linecap:butt;stroke-linejoin:miter;stroke-miterlimit:4;stroke-dasharray:none;stroke-dashoffset:0px;stroke-opacity:1;marker-start:none;marker-mid:none;marker-end:none;paint-order:fill stroke markers;color-rendering:auto;image-rendering:auto;shape-rendering:auto;text-rendering:auto"
       mask="none"
       clip-path="none"
       id="tiltImage">
      <path
         inkscape:connector-curvature="0"
         d="m 72.5,39.40625 c 18.297686,0 33.125,14.791695 33.125,33.09375 0,18.302054 -14.827314,33.125 -33.125,33.125 -18.297687,0 -33.09375,-14.822946 -33.09375,-33.125 0,-18.302056 14.796063,-33.09375 33.09375,-33.09375 z"
         id="path18"
         style="fill:none" />
      <g
         id="g864"
         transform="matrix(0.9674232,0,0,0.98670989,2.6227586,2.3837298)">
        <path
           style="fill:#343434;fill-opacity:1;stroke-width:0.67087352px"
           d="m 51.553475,90.220847 c -0.576862,-0.557834 -0.818669,-4.343625 -0.818669,-12.817246 0,-10.028543 0.177194,-12.196943 1.067007,-13.057391 0.942416,-0.911319 1.289662,-0.920446 2.973911,-0.0782 1.048794,0.524458 3.638652,2.537139 5.755237,4.472606 l 3.848341,3.519052 v 4.397559 c 0,2.418657 -0.332266,5.079483 -0.738371,5.912951 -0.828557,1.700473 -9.170365,8.442359 -10.445811,8.442359 -0.452637,0 -1.191376,-0.356243 -1.641645,-0.791645 z M 67.26,89.985523 c -1.469968,-0.995637 -1.516255,-1.384208 -1.516255,-12.732428 0,-8.224627 0.243449,-11.940863 0.818668,-12.497102 0.576984,-0.557933 4.497344,-0.791654 13.279387,-0.791654 11.621318,0 12.508276,0.08599 13.166936,1.276053 0.405294,0.73231 0.706234,5.932882 0.706234,12.204655 0,14.453297 0.903233,13.567454 -13.83381,13.567454 -8.946663,0 -11.399594,-0.199602 -12.62116,-1.026978 z m 2.801203,-28.919861 c -1.502601,-1.249835 -1.898654,-2.143641 -1.898654,-4.284801 0,-3.675344 2.042981,-5.650905 5.843755,-5.650905 5.552084,0 8.006114,5.780316 4.069965,9.586575 -2.4943,2.411984 -5.383699,2.537838 -8.015066,0.349131 z m 13.283782,-0.430493 c -1.788976,-1.729934 -2.022156,-2.344407 -1.674921,-4.413611 0.565654,-3.370643 2.561492,-5.091602 5.904876,-5.091602 3.343385,0 5.339223,1.720959 5.904877,5.091602 0.347244,2.069204 0.114063,2.683677 -1.674921,4.413611 -1.437643,1.39021 -2.741604,2.009743 -4.229956,2.009743 -1.488342,0 -2.792312,-0.619533 -4.229955,-2.009743 z"
           id="path5088"
           inkscape:connector-curvature="0" />
      </g>
    </g>
    <g
       transform="matrix(0.21637195,0,0,0.21660052,28.757264,44.46003)"
       class="tc-view-3d-cm-tilt-outer tc-view-3d-cm-tilt-outer-circle"
       style="color:#000000;font-style:normal;font-variant:normal;font-weight:normal;font-stretch:normal;font-size:16px;line-height:normal;font-family:Arial, helvetica, sans-serif;font-variant-ligatures:normal;font-variant-caps:normal;font-variant-numeric:normal;text-indent:0px;text-align:start;text-decoration:none;text-decoration-line:none;text-decoration-style:solid;text-decoration-color:#000000;letter-spacing:normal;word-spacing:0px;text-transform:none;writing-mode:lr-tb;direction:ltr;dominant-baseline:auto;baseline-shift:0px;text-anchor:start;white-space:normal;clip-rule:nonzero;display:inline;visibility:visible;opacity:1;isolation:auto;mix-blend-mode:normal;color-interpolation:sRGB;color-interpolation-filters:linearRGB;vector-effect:none;fill:#ffffff;fill-opacity:0.5;fill-rule:nonzero;stroke:#ffffff;stroke-width:5px;stroke-linecap:butt;stroke-linejoin:miter;stroke-miterlimit:4;stroke-dasharray:none;stroke-dashoffset:0px;stroke-opacity:0.3;marker-start:none;marker-mid:none;marker-end:none;paint-order:fill stroke markers;color-rendering:auto;image-rendering:auto;shape-rendering:auto;text-rendering:auto"
       mask="none"
       clip-path="none"
       id="tiltOuter">
      <path
         inkscape:connector-curvature="0"
         d="m 72.5,20.21875 c -28.867432,0 -52.28125,23.407738 -52.28125,52.28125 0,28.87351 23.413818,52.3125 52.28125,52.3125 28.86743,0 52.28125,-23.43899 52.28125,-52.3125 0,-28.873512 -23.41382,-52.28125 -52.28125,-52.28125 z m 0,19.1875 c 18.297686,0 33.125,14.791695 33.125,33.09375 0,18.302054 -14.827314,33.125 -33.125,33.125 -18.297687,0 -33.09375,-14.822946 -33.09375,-33.125 0,-18.302056 14.796063,-33.09375 33.09375,-33.09375 z"
         id="path10" />
    </g>
    <g
       transform="matrix(0.21637195,0,0,0.21660052,28.757264,44.46003)"
       class="tc-view-3d-cm-tilt-outer tc-view-3d-cm-rotate-tilt-shell-circle"
       style="color:#000000;font-style:normal;font-variant:normal;font-weight:normal;font-stretch:normal;font-size:16px;line-height:normal;font-family:Arial, helvetica, sans-serif;font-variant-ligatures:normal;font-variant-caps:normal;font-variant-numeric:normal;text-indent:0px;text-align:start;text-decoration:none;text-decoration-line:none;text-decoration-style:solid;text-decoration-color:#000000;letter-spacing:normal;word-spacing:0px;text-transform:none;writing-mode:lr-tb;direction:ltr;dominant-baseline:auto;baseline-shift:0px;text-anchor:start;white-space:normal;clip-rule:nonzero;display:inline;visibility:visible;opacity:1;isolation:auto;mix-blend-mode:normal;color-interpolation:sRGB;color-interpolation-filters:linearRGB;vector-effect:none;fill:#343434;fill-opacity:1;fill-rule:nonzero;stroke:none;stroke-width:1px;stroke-linecap:butt;stroke-linejoin:miter;stroke-miterlimit:4;stroke-dasharray:none;stroke-dashoffset:0px;stroke-opacity:1;marker-start:none;marker-mid:none;marker-end:none;paint-order:fill stroke markers;color-rendering:auto;image-rendering:auto;shape-rendering:auto;text-rendering:auto"
       mask="none"
       clip-path="none"
       id="tiltShell">
      <path
         d="m 72.5,20.21875 c -28.867432,0 -52.28125,23.407738 -52.28125,52.28125 0,28.87351 23.413818,52.3125 52.28125,52.3125 28.86743,0 52.28125,-23.43899 52.28125,-52.3125 0,-28.873512 -23.41382,-52.28125 -52.28125,-52.28125 z m 0,1.75 c 13.842515,0 26.368948,5.558092 35.5,14.5625 l -11.03125,11 0.625,0.625 11.03125,-11 c 8.9199,9.108762 14.4375,21.579143 14.4375,35.34375 0,13.764606 -5.5176,26.22729 -14.4375,35.34375 l -11.03125,-11 -0.625,0.625 11.03125,11 c -9.130866,9.01087 -21.658601,14.59375 -35.5,14.59375 -8.974318,0 -17.406519,-2.34016 -24.713539,-6.44192 -3.93046,-2.20634 -7.535362,-4.92238 -10.723961,-8.05808 l 11.125,-11.09375 c 6.277989,6.12179 14.857796,9.90625 24.3125,9.90625 19.241896,0 34.875,-15.629154 34.875,-34.875 0,-19.245847 -15.633104,-34.84375 -34.875,-34.84375 -9.454704,0 -18.034511,3.760884 -24.3125,9.875 L 37.0625,36.4375 C 46.179178,27.478444 58.696991,21.96875 72.5,21.96875 Z M 71.625,22.8125 V 36.75 h 1.75 V 22.8125 Z M 36.46875,37.0625 47.5625,48.15625 C 41.429794,54.436565 37.65625,63.027539 37.65625,72.5 c 0,9.472461 3.773544,18.055746 9.90625,24.34375 L 36.46875,107.9375 c -2.011121,-2.04644 -3.849492,-4.26267 -5.491444,-6.62541 C 28.838944,98.235032 27.033722,94.909476 25.613928,91.386834 23.262939,85.553813 21.96875,79.180403 21.96875,72.5 c 0,-13.812615 5.53279,-26.320526 14.5,-35.4375 z M 72.5,39.40625 c 18.297686,0 33.125,14.791695 33.125,33.09375 0,18.302054 -14.827314,33.125 -33.125,33.125 -18.297687,0 -33.09375,-14.822946 -33.09375,-33.125 0,-18.302056 14.796063,-33.09375 33.09375,-33.09375 z M 22.84375,71.625 v 1.75 H 36.8125 v -1.75 z m 85.5625,0 v 1.75 h 14 v -1.75 z M 71.75,108.25 v 13.9375 h 1.71875 V 108.25 Z"
         id="path14"
         inkscape:connector-curvature="0"
         sodipodi:nodetypes="ssssssccccsccccssccsssccscccccccsccssscsssssccccccccccccccc" />
    </g>
    <path
       style="fill:#343434;fill-opacity:1;stroke:#ffffff;stroke-width:0.2;stroke-linecap:round;stroke-linejoin:round;stroke-miterlimit:4;stroke-dasharray:none;stroke-opacity:0.3169643;paint-order:stroke fill markers"
       d="m 39.042333,72.771168 -0.900176,1.930845 c -3.602026,-1.827341 -6.291424,-4.493351 -8.092758,-8.066895 l -0.969844,0.452626 0.663465,-4.788009 3.222442,2.974451 -0.983505,0.459005 c 1.447339,3.107391 3.949646,5.598011 7.060376,7.037977 z"
       id="up"
       inkscape:connector-curvature="0"
       sodipodi:nodetypes="cccccccc" />
    <path
       style="fill:#343434;fill-opacity:1;stroke:#ffffff;stroke-width:0.2;stroke-linecap:round;stroke-linejoin:round;stroke-miterlimit:4;stroke-dasharray:none;stroke-opacity:0.3169643;paint-order:stroke fill markers"
       d="m 39.120908,47.574068 -0.900176,-1.930845 c -3.60202,1.827341 -6.29142,4.493352 -8.092755,8.066896 l -0.969844,-0.452626 0.663465,4.788009 3.222444,-2.974451 -0.983506,-0.459005 c 1.44734,-3.107391 3.949643,-5.598011 7.060372,-7.037978 z"
       id="down"
       inkscape:connector-curvature="0"
       sodipodi:nodetypes="cccccccc" />
  </g>
  <g
     id="rotateLayer"
     inkscape:groupmode="layer"
     inkscape:label="rotateLayer"
     style="display:inline"
     transform="translate(-1.4344857,-42.797176)">
    <g
       id="rotateImage"
       clip-path="none"
       mask="none"
       style="color:#000000;font-style:normal;font-variant:normal;font-weight:normal;font-stretch:normal;font-size:16px;line-height:normal;font-family:Arial, helvetica, sans-serif;font-variant-ligatures:normal;font-variant-caps:normal;font-variant-numeric:normal;text-indent:0px;text-align:start;text-decoration:none;text-decoration-line:none;text-decoration-style:solid;text-decoration-color:#000000;letter-spacing:normal;word-spacing:0px;text-transform:none;writing-mode:lr-tb;direction:ltr;dominant-baseline:auto;baseline-shift:0px;text-anchor:start;white-space:normal;clip-rule:nonzero;display:inline;visibility:visible;opacity:1;isolation:auto;mix-blend-mode:normal;color-interpolation:sRGB;color-interpolation-filters:linearRGB;vector-effect:none;fill:#000000;fill-opacity:1;fill-rule:nonzero;stroke:none;stroke-width:1px;stroke-linecap:butt;stroke-linejoin:miter;stroke-miterlimit:4;stroke-dasharray:none;stroke-dashoffset:0px;stroke-opacity:1;marker-start:none;marker-mid:none;marker-end:none;paint-order:fill stroke markers;color-rendering:auto;image-rendering:auto;shape-rendering:auto;text-rendering:auto"
       class="tc-view-3d-cm-rotate-inner"
       transform="matrix(0.21637195,0,0,0.21660052,34.578101,44.46003)">
      <path
         style="fill:none"
         id="path5067"
         d="m 72.5,39.40625 c 18.297686,0 33.125,14.791695 33.125,33.09375 0,18.302054 -14.827314,33.125 -33.125,33.125 -18.297687,0 -33.09375,-14.822946 -33.09375,-33.125 0,-18.302056 14.796063,-33.09375 33.09375,-33.09375 z"
         inkscape:connector-curvature="0" />
      <g
         transform="matrix(0.79316757,0,0,0.80101598,15.597289,17.155606)"
         id="g5071">
        <path
           style="fill:#343434;fill-opacity:1;stroke-width:0.86220014px"
           d="m 56.889363,74.905071 c 5.014506,-10.70447 10.354376,-22.275323 11.866386,-25.712998 2.74912,-6.250316 2.74912,-6.250316 3.87334,-3.849761 12.06435,25.761139 22.50337,48.665829 22.29123,48.910149 -0.14921,0.17185 -5.50034,-0.95174 -11.8914,-2.49686 -11.62011,-2.80932 -11.62011,-2.80932 -22.61459,-0.0986 -6.046966,1.49091 -11.365229,2.71074 -11.818364,2.71074 -0.453134,0 3.278895,-8.75821 8.293398,-19.46268 z m 7.191386,11.68652 c 7.88619,-1.78765 7.88619,-1.78765 7.88619,-17.28115 0,-8.84278 -0.32465,-15.144635 -0.75631,-14.68078 -0.59157,0.6357 -13.49535,27.84766 -15.496788,32.6802 -0.561991,1.35694 -0.925539,1.38815 8.366908,-0.71827 z"
           id="path5069"
           inkscape:connector-curvature="0" />
      </g>
      <path
         style="fill:none;fill-opacity:1;stroke:#000000;stroke-width:0.46192321;stroke-linecap:round;stroke-linejoin:round;stroke-miterlimit:4;stroke-dasharray:none;stroke-dashoffset:0;stroke-opacity:1"
         id="path8766"
         ry="54.986935"
         rx="54.813419"
         cy="72.433144"
         cx="72.500343"
         d=""
         inkscape:connector-curvature="0" />
    </g>
    <g
       id="rotateOuter"
       clip-path="none"
       mask="none"
       style="color:#000000;font-style:normal;font-variant:normal;font-weight:normal;font-stretch:normal;font-size:16px;line-height:normal;font-family:Arial, helvetica, sans-serif;font-variant-ligatures:normal;font-variant-caps:normal;font-variant-numeric:normal;text-indent:0px;text-align:start;text-decoration:none;text-decoration-line:none;text-decoration-style:solid;text-decoration-color:#000000;letter-spacing:normal;word-spacing:0px;text-transform:none;writing-mode:lr-tb;direction:ltr;dominant-baseline:auto;baseline-shift:0px;text-anchor:start;white-space:normal;clip-rule:nonzero;display:inline;visibility:visible;opacity:1;isolation:auto;mix-blend-mode:normal;color-interpolation:sRGB;color-interpolation-filters:linearRGB;vector-effect:none;fill:#ffffff;fill-opacity:0.5;fill-rule:nonzero;stroke:#ffffff;stroke-width:4.99746037;stroke-linecap:butt;stroke-linejoin:miter;stroke-miterlimit:4;stroke-dasharray:none;stroke-dashoffset:0px;stroke-opacity:0.3;marker-start:none;marker-mid:none;marker-end:none;paint-order:fill stroke markers;color-rendering:auto;image-rendering:auto;shape-rendering:auto;text-rendering:auto"
       class="tc-view-3d-cm-rotate-outer tc-view-3d-cm-rotate-outer-circle"
       transform="matrix(0.21637195,0,0,0.21660052,34.578101,44.46003)">
      <path
         id="path5059"
         d="m 72.5,20.21875 c -28.867432,0 -52.28125,23.407738 -52.28125,52.28125 0,28.87351 23.413818,52.3125 52.28125,52.3125 28.86743,0 52.28125,-23.43899 52.28125,-52.3125 0,-28.873512 -23.41382,-52.28125 -52.28125,-52.28125 z m 0,19.1875 c 18.297686,0 33.125,14.791695 33.125,33.09375 0,18.302054 -14.827314,33.125 -33.125,33.125 -18.297687,0 -33.09375,-14.822946 -33.09375,-33.125 0,-18.302056 14.796063,-33.09375 33.09375,-33.09375 z"
         inkscape:connector-curvature="0"
         style="stroke-width:4.99746037;stroke-miterlimit:4;stroke-dasharray:none" />
    </g>
    <g
       id="rotateShell"
       clip-path="none"
       mask="none"
       style="color:#000000;font-style:normal;font-variant:normal;font-weight:normal;font-stretch:normal;font-size:16px;line-height:normal;font-family:Arial, helvetica, sans-serif;font-variant-ligatures:normal;font-variant-caps:normal;font-variant-numeric:normal;text-indent:0px;text-align:start;text-decoration:none;text-decoration-line:none;text-decoration-style:solid;text-decoration-color:#000000;letter-spacing:normal;word-spacing:0px;text-transform:none;writing-mode:lr-tb;direction:ltr;dominant-baseline:auto;baseline-shift:0px;text-anchor:start;white-space:normal;clip-rule:nonzero;display:inline;visibility:visible;opacity:1;isolation:auto;mix-blend-mode:normal;color-interpolation:sRGB;color-interpolation-filters:linearRGB;vector-effect:none;fill:#343434;fill-opacity:1;fill-rule:nonzero;stroke:none;stroke-width:1px;stroke-linecap:butt;stroke-linejoin:miter;stroke-miterlimit:4;stroke-dasharray:none;stroke-dashoffset:0px;stroke-opacity:1;marker-start:none;marker-mid:none;marker-end:none;paint-order:fill stroke markers;color-rendering:auto;image-rendering:auto;shape-rendering:auto;text-rendering:auto"
       class="tc-view-3d-cm-rotate-outer tc-view-3d-cm-rotate-outer-shell-circle"
       transform="matrix(0.21637195,0,0,0.21660052,34.578101,44.46003)">
      <path
         sodipodi:nodetypes="ssssssccccsccccssccsssccscccccccsccssscsssssccccccccccccccc"
         inkscape:connector-curvature="0"
         id="path5063"
         d="m 72.5,20.21875 c -28.867432,0 -52.28125,23.407738 -52.28125,52.28125 0,28.87351 23.413818,52.3125 52.28125,52.3125 28.86743,0 52.28125,-23.43899 52.28125,-52.3125 0,-28.873512 -23.41382,-52.28125 -52.28125,-52.28125 z m 0,1.75 c 13.842515,0 26.368948,5.558092 35.5,14.5625 l -11.03125,11 0.625,0.625 11.03125,-11 c 8.9199,9.108762 14.4375,21.579143 14.4375,35.34375 0,13.764606 -5.5176,26.22729 -14.4375,35.34375 l -11.03125,-11 -0.625,0.625 11.03125,11 c -9.130866,9.01087 -21.658601,14.59375 -35.5,14.59375 -8.974318,0 -17.406519,-2.34016 -24.713539,-6.44192 -3.93046,-2.20634 -7.535362,-4.92238 -10.723961,-8.05808 l 11.125,-11.09375 c 6.277989,6.12179 14.857796,9.90625 24.3125,9.90625 19.241896,0 34.875,-15.629154 34.875,-34.875 0,-19.245847 -15.633104,-34.84375 -34.875,-34.84375 -9.454704,0 -18.034511,3.760884 -24.3125,9.875 L 37.0625,36.4375 C 46.179178,27.478444 58.696991,21.96875 72.5,21.96875 Z M 71.625,22.8125 V 36.75 h 1.75 V 22.8125 Z M 36.46875,37.0625 47.5625,48.15625 C 41.429794,54.436565 37.65625,63.027539 37.65625,72.5 c 0,9.472461 3.773544,18.055746 9.90625,24.34375 L 36.46875,107.9375 c -2.011121,-2.04644 -3.849492,-4.26267 -5.491444,-6.62541 C 28.838944,98.235032 27.033722,94.909476 25.613928,91.386834 23.262939,85.553813 21.96875,79.180403 21.96875,72.5 c 0,-13.812615 5.53279,-26.320526 14.5,-35.4375 z M 72.5,39.40625 c 18.297686,0 33.125,14.791695 33.125,33.09375 0,18.302054 -14.827314,33.125 -33.125,33.125 -18.297687,0 -33.09375,-14.822946 -33.09375,-33.125 0,-18.302056 14.796063,-33.09375 33.09375,-33.09375 z M 22.84375,71.625 v 1.75 H 36.8125 v -1.75 z m 85.5625,0 v 1.75 h 14 v -1.75 z M 71.75,108.25 v 13.9375 h 1.71875 V 108.25 Z" />
    </g>
    <path
       style="fill:#343434;fill-opacity:1;stroke:#ffffff;stroke-width:0.2;stroke-linecap:round;stroke-linejoin:round;stroke-miterlimit:4;stroke-dasharray:none;stroke-opacity:0.3169643;paint-order:stroke fill markers"
       d="m 55.495909,72.907368 0.900176,1.930847 c 3.602027,-1.827343 6.291427,-4.493353 8.092762,-8.066897 l 0.969844,0.452626 -0.663464,-4.788009 -3.222445,2.974451 0.983506,0.459005 c -1.447339,3.107391 -3.949649,5.598011 -7.060379,7.037977 z"
       id="right"
       inkscape:connector-curvature="0"
       sodipodi:nodetypes="cccccccc" />
    <path
       style="fill:#343434;fill-opacity:1;stroke:#ffffff;stroke-width:0.2;stroke-linecap:round;stroke-linejoin:round;stroke-miterlimit:4;stroke-dasharray:none;stroke-opacity:0.3169643;paint-order:stroke fill markers"
       d="m 45.050009,72.906221 -0.900176,1.930846 c -3.602027,-1.827342 -6.291427,-4.493352 -8.092762,-8.066896 l -0.969844,0.452626 0.663465,-4.788009 3.222444,2.974451 -0.983506,0.459005 c 1.44734,3.107391 3.949649,5.598011 7.060379,7.037977 z"
       id="left"
       inkscape:connector-curvature="0"
       sodipodi:nodetypes="cccccccc" />
  </g>
</svg>
