<svg version="1" xmlns="http://www.w3.org/2000/svg" width="1333.333" height="1333.333" viewBox="0 0 1000.000000 1000.000000"><g fill="#fff"><path d="M150 250v100h200V150H150v100zM450 250.5V276h401v-51H450v25.5zM238 400.6c-18.8 3.5-29.9 7.6-42.7 15.9-21.1 13.8-36.1 35.1-42.6 60.5-3.2 12.9-3 34.9.6 48.2 9.4 35.2 35.8 61.7 71.4 71.5 8.7 2.4 11.6 2.7 25.3 2.7 13.7 0 16.6-.3 25.3-2.7 35.6-9.8 61.6-35.8 71.4-71.4 2.4-8.7 2.7-11.5 2.7-25.3-.1-13.5-.4-16.8-2.7-25.2-9.5-35.7-37.3-63-73.2-71.9-7.7-2-29.7-3.4-35.5-2.3zM450 500.5V526h401v-51H450v25.5zM199.7 750.5L150 850h200l-49.7-99.5c-27.4-54.7-50-99.5-50.3-99.5-.3 0-22.9 44.8-50.3 99.5zM450 750.5V776h401v-51H450v25.5z"/></g></svg>